<mxfile host="Electron" modified="2023-10-25T08:57:52.949Z" agent="Mozilla/5.0 (Windows NT 10.0; Win64; x64) AppleWebKit/537.36 (KHTML, like Gecko) draw.io/21.6.8 Chrome/114.0.5735.289 Electron/25.5.0 Safari/537.36" etag="1oUnXcCfizaMvugnlj_j" version="21.6.8" type="device">
  <diagram name="Page-1" id="4HSFHKd52x7yGXTfaxBi">
    <mxGraphModel dx="675" dy="394" grid="1" gridSize="10" guides="1" tooltips="1" connect="1" arrows="1" fold="1" page="1" pageScale="1" pageWidth="1000" pageHeight="1000" math="1" shadow="0">
      <root>
        <mxCell id="0" />
        <mxCell id="1" parent="0" />
        <mxCell id="wdF4Evwe8BdcauOkIp5D-2" value="" style="rounded=0;whiteSpace=wrap;html=1;fillColor=none;dashed=1;strokeColor=#0000FF;strokeWidth=2;" vertex="1" parent="1">
          <mxGeometry x="362" y="82" width="92" height="78" as="geometry" />
        </mxCell>
        <mxCell id="wdF4Evwe8BdcauOkIp5D-1" value="" style="rounded=0;whiteSpace=wrap;html=1;fillColor=none;dashed=1;strokeColor=#FF3333;strokeWidth=2;" vertex="1" parent="1">
          <mxGeometry x="74" y="81" width="275" height="129" as="geometry" />
        </mxCell>
        <mxCell id="9jaLZqMGAp_-SNpzstYX-11" style="edgeStyle=orthogonalEdgeStyle;rounded=0;orthogonalLoop=1;jettySize=auto;html=1;exitX=1;exitY=0.5;exitDx=0;exitDy=0;entryX=0;entryY=0.5;entryDx=0;entryDy=0;" parent="1" source="9jaLZqMGAp_-SNpzstYX-4" target="9jaLZqMGAp_-SNpzstYX-8" edge="1">
          <mxGeometry relative="1" as="geometry" />
        </mxCell>
        <mxCell id="9jaLZqMGAp_-SNpzstYX-4" value="&lt;font face=&quot;Times New Roman&quot;&gt;&lt;span style=&quot;font-size: 16px;&quot;&gt;$$\text{NL}$$&lt;/span&gt;&lt;/font&gt;" style="rounded=0;whiteSpace=wrap;html=1;fillColor=none;" parent="1" vertex="1">
          <mxGeometry x="182" y="108.5" width="60" height="40" as="geometry" />
        </mxCell>
        <mxCell id="9jaLZqMGAp_-SNpzstYX-14" style="edgeStyle=orthogonalEdgeStyle;rounded=0;orthogonalLoop=1;jettySize=auto;html=1;exitX=1;exitY=0.5;exitDx=0;exitDy=0;entryX=0;entryY=0.5;entryDx=0;entryDy=0;" parent="1" source="9jaLZqMGAp_-SNpzstYX-8" target="9jaLZqMGAp_-SNpzstYX-7" edge="1">
          <mxGeometry relative="1" as="geometry">
            <mxPoint x="317" y="128.5" as="sourcePoint" />
          </mxGeometry>
        </mxCell>
        <mxCell id="7vjazzU0ZrqHmM4yLO1K-4" style="edgeStyle=orthogonalEdgeStyle;rounded=0;orthogonalLoop=1;jettySize=auto;html=1;exitX=1;exitY=0.5;exitDx=0;exitDy=0;" parent="1" source="9jaLZqMGAp_-SNpzstYX-7" edge="1">
          <mxGeometry relative="1" as="geometry">
            <mxPoint x="491" y="128.53333333333336" as="targetPoint" />
          </mxGeometry>
        </mxCell>
        <mxCell id="9jaLZqMGAp_-SNpzstYX-7" value="&lt;font face=&quot;Times New Roman&quot;&gt;&lt;span style=&quot;font-size: 16px;&quot;&gt;$$\text{AFIR}$$&lt;/span&gt;&lt;/font&gt;" style="rounded=0;whiteSpace=wrap;html=1;fillColor=none;" parent="1" vertex="1">
          <mxGeometry x="380" y="108.5" width="60" height="40" as="geometry" />
        </mxCell>
        <mxCell id="9jaLZqMGAp_-SNpzstYX-8" value="" style="ellipse;whiteSpace=wrap;html=1;aspect=fixed;fillColor=none;" parent="1" vertex="1">
          <mxGeometry x="292" y="116" width="25" height="25" as="geometry" />
        </mxCell>
        <mxCell id="9jaLZqMGAp_-SNpzstYX-9" value="" style="endArrow=none;html=1;rounded=0;entryX=1;entryY=0;entryDx=0;entryDy=0;exitX=0;exitY=1;exitDx=0;exitDy=0;" parent="1" source="9jaLZqMGAp_-SNpzstYX-8" target="9jaLZqMGAp_-SNpzstYX-8" edge="1">
          <mxGeometry width="50" height="50" relative="1" as="geometry">
            <mxPoint x="266" y="178.5" as="sourcePoint" />
            <mxPoint x="316" y="128.5" as="targetPoint" />
          </mxGeometry>
        </mxCell>
        <mxCell id="9jaLZqMGAp_-SNpzstYX-10" value="" style="endArrow=none;html=1;rounded=0;exitX=0;exitY=0;exitDx=0;exitDy=0;entryX=1;entryY=1;entryDx=0;entryDy=0;" parent="1" source="9jaLZqMGAp_-SNpzstYX-8" target="9jaLZqMGAp_-SNpzstYX-8" edge="1">
          <mxGeometry width="50" height="50" relative="1" as="geometry">
            <mxPoint x="266" y="178.5" as="sourcePoint" />
            <mxPoint x="316" y="128.5" as="targetPoint" />
          </mxGeometry>
        </mxCell>
        <mxCell id="9jaLZqMGAp_-SNpzstYX-17" style="edgeStyle=orthogonalEdgeStyle;rounded=0;orthogonalLoop=1;jettySize=auto;html=1;exitX=1;exitY=0.5;exitDx=0;exitDy=0;entryX=0;entryY=0.5;entryDx=0;entryDy=0;" parent="1" source="9jaLZqMGAp_-SNpzstYX-16" target="9jaLZqMGAp_-SNpzstYX-4" edge="1">
          <mxGeometry relative="1" as="geometry" />
        </mxCell>
        <mxCell id="9jaLZqMGAp_-SNpzstYX-16" value="&lt;font face=&quot;Times New Roman&quot;&gt;&lt;span style=&quot;font-size: 16px;&quot;&gt;$$|\cdot|$$&lt;/span&gt;&lt;/font&gt;" style="rounded=0;whiteSpace=wrap;html=1;fillColor=none;" parent="1" vertex="1">
          <mxGeometry x="111" y="113.5" width="30" height="30" as="geometry" />
        </mxCell>
        <mxCell id="9jaLZqMGAp_-SNpzstYX-18" value="" style="endArrow=classic;html=1;rounded=0;entryX=0;entryY=0.5;entryDx=0;entryDy=0;" parent="1" target="9jaLZqMGAp_-SNpzstYX-16" edge="1">
          <mxGeometry width="50" height="50" relative="1" as="geometry">
            <mxPoint x="61" y="128.5" as="sourcePoint" />
            <mxPoint x="31" y="143.5" as="targetPoint" />
          </mxGeometry>
        </mxCell>
        <mxCell id="9jaLZqMGAp_-SNpzstYX-19" value="" style="shape=waypoint;sketch=0;fillStyle=solid;size=6;pointerEvents=1;points=[];fillColor=none;resizable=0;rotatable=0;perimeter=centerPerimeter;snapToPoint=1;" parent="1" vertex="1">
          <mxGeometry x="80" y="118.5" width="20" height="20" as="geometry" />
        </mxCell>
        <mxCell id="9jaLZqMGAp_-SNpzstYX-22" value="&lt;font style=&quot;font-size: 16px;&quot;&gt;$$x_n$$&lt;/font&gt;" style="text;html=1;strokeColor=none;fillColor=none;align=center;verticalAlign=middle;whiteSpace=wrap;rounded=0;" parent="1" vertex="1">
          <mxGeometry x="60" y="97" width="60" height="30" as="geometry" />
        </mxCell>
        <mxCell id="9jaLZqMGAp_-SNpzstYX-23" value="&lt;font style=&quot;font-size: 16px;&quot;&gt;$$|x_n|$$&lt;/font&gt;" style="text;html=1;strokeColor=none;fillColor=none;align=center;verticalAlign=middle;whiteSpace=wrap;rounded=0;" parent="1" vertex="1">
          <mxGeometry x="131" y="97" width="60" height="30" as="geometry" />
        </mxCell>
        <mxCell id="9jaLZqMGAp_-SNpzstYX-24" value="&lt;font style=&quot;font-size: 16px;&quot;&gt;$$f(|x_n|)$$&lt;/font&gt;" style="text;html=1;strokeColor=none;fillColor=none;align=center;verticalAlign=middle;whiteSpace=wrap;rounded=0;" parent="1" vertex="1">
          <mxGeometry x="242" y="86" width="60" height="30" as="geometry" />
        </mxCell>
        <mxCell id="9jaLZqMGAp_-SNpzstYX-26" value="&lt;font style=&quot;font-size: 16px;&quot;&gt;$$s_n$$&lt;/font&gt;" style="text;html=1;strokeColor=none;fillColor=none;align=center;verticalAlign=middle;whiteSpace=wrap;rounded=0;" parent="1" vertex="1">
          <mxGeometry x="302" y="97" width="60" height="30" as="geometry" />
        </mxCell>
        <mxCell id="vHjTjQ7eJ2WaOKKDIpkT-1" value="&lt;font face=&quot;Times New Roman&quot;&gt;&lt;span style=&quot;font-size: 16px;&quot;&gt;$$(\cdot)^q$$&lt;/span&gt;&lt;/font&gt;" style="rounded=0;whiteSpace=wrap;html=1;fillColor=none;" parent="1" vertex="1">
          <mxGeometry x="172" y="173.5" width="50" height="30" as="geometry" />
        </mxCell>
        <mxCell id="vHjTjQ7eJ2WaOKKDIpkT-3" value="" style="endArrow=classic;html=1;rounded=0;exitX=0.391;exitY=0.676;exitDx=0;exitDy=0;exitPerimeter=0;entryX=0;entryY=0.5;entryDx=0;entryDy=0;" parent="1" source="9jaLZqMGAp_-SNpzstYX-19" target="vHjTjQ7eJ2WaOKKDIpkT-1" edge="1">
          <mxGeometry width="50" height="50" relative="1" as="geometry">
            <mxPoint x="362" y="238.5" as="sourcePoint" />
            <mxPoint x="412" y="188.5" as="targetPoint" />
            <Array as="points">
              <mxPoint x="90" y="188.5" />
            </Array>
          </mxGeometry>
        </mxCell>
        <mxCell id="vHjTjQ7eJ2WaOKKDIpkT-4" value="" style="endArrow=classic;html=1;rounded=0;exitX=1;exitY=0.5;exitDx=0;exitDy=0;entryX=0.5;entryY=1;entryDx=0;entryDy=0;" parent="1" source="vHjTjQ7eJ2WaOKKDIpkT-1" target="9jaLZqMGAp_-SNpzstYX-8" edge="1">
          <mxGeometry width="50" height="50" relative="1" as="geometry">
            <mxPoint x="362" y="238.5" as="sourcePoint" />
            <mxPoint x="412" y="188.5" as="targetPoint" />
            <Array as="points">
              <mxPoint x="305" y="188.5" />
            </Array>
          </mxGeometry>
        </mxCell>
        <mxCell id="hoQUWaQr8fYpEWLFgmcA-1" value="&lt;font style=&quot;font-size: 16px;&quot;&gt;$$y_n$$&lt;/font&gt;" style="text;html=1;strokeColor=none;fillColor=none;align=center;verticalAlign=middle;whiteSpace=wrap;rounded=0;" parent="1" vertex="1">
          <mxGeometry x="440" y="97" width="60" height="30" as="geometry" />
        </mxCell>
        <mxCell id="7vjazzU0ZrqHmM4yLO1K-1" value="&lt;font face=&quot;Times New Roman&quot; style=&quot;font-size: 16px;&quot;&gt;&lt;b&gt;&lt;i&gt;h&lt;/i&gt;&lt;/b&gt;&lt;/font&gt;" style="text;html=1;strokeColor=none;fillColor=none;align=center;verticalAlign=middle;whiteSpace=wrap;rounded=0;" parent="1" vertex="1">
          <mxGeometry x="181" y="80" width="60" height="30" as="geometry" />
        </mxCell>
        <mxCell id="7vjazzU0ZrqHmM4yLO1K-2" value="&lt;font face=&quot;Times New Roman&quot; style=&quot;font-size: 16px;&quot;&gt;&lt;i&gt;&lt;b&gt;w&lt;/b&gt;&lt;/i&gt;&lt;/font&gt;" style="text;html=1;strokeColor=none;fillColor=none;align=center;verticalAlign=middle;whiteSpace=wrap;rounded=0;" parent="1" vertex="1">
          <mxGeometry x="380" y="80" width="60" height="30" as="geometry" />
        </mxCell>
        <mxCell id="wdF4Evwe8BdcauOkIp5D-4" value="&lt;font color=&quot;#ff3333&quot; style=&quot;font-size: 14px;&quot;&gt;$$\text{PA nonlinearity}$$&lt;/font&gt;" style="text;html=1;strokeColor=none;fillColor=none;align=center;verticalAlign=middle;whiteSpace=wrap;rounded=0;" vertex="1" parent="1">
          <mxGeometry x="136.5" y="50" width="149" height="30" as="geometry" />
        </mxCell>
        <mxCell id="wdF4Evwe8BdcauOkIp5D-5" value="&lt;font color=&quot;#0000ff&quot; style=&quot;font-size: 14px;&quot;&gt;$$\text{leakage path}$$&lt;/font&gt;" style="text;html=1;strokeColor=none;fillColor=none;align=center;verticalAlign=middle;whiteSpace=wrap;rounded=0;" vertex="1" parent="1">
          <mxGeometry x="333.5" y="56" width="149" height="30" as="geometry" />
        </mxCell>
        <mxCell id="wdF4Evwe8BdcauOkIp5D-6" value="&lt;font color=&quot;#0000ff&quot; style=&quot;font-size: 14px;&quot;&gt;$$\text{Linear}$$&lt;/font&gt;" style="text;html=1;strokeColor=none;fillColor=none;align=center;verticalAlign=middle;whiteSpace=wrap;rounded=0;" vertex="1" parent="1">
          <mxGeometry x="333.5" y="40" width="149" height="30" as="geometry" />
        </mxCell>
      </root>
    </mxGraphModel>
  </diagram>
</mxfile>
